<?xml version="1.0" standalone="no"?>
<!DOCTYPE svg PUBLIC "-//W3C//DTD SVG 20010904//EN"
 "http://www.w3.org/TR/2001/REC-SVG-20010904/DTD/svg10.dtd">
<svg version="1.0" xmlns="http://www.w3.org/2000/svg"
 width="260.000000pt" height="260.000000pt" viewBox="0 0 260.000000 260.000000"
 preserveAspectRatio="xMidYMid meet">
<metadata>
Created by potrace 1.14, written by Peter Selinger 2001-2017
</metadata>
<g transform="translate(0.000000,260.000000) scale(0.100000,-0.100000)"
fill="#000000" stroke="none">
<path d="M1125 2554 c-382 -61 -706 -294 -888 -637 -172 -324 -176 -750 -10
-1082 82 -164 249 -356 392 -451 l42 -27 -3 -86 -3 -86 -190 -1 c-104 -1 -195
1 -200 3 -7 2 -10 48 -10 121 2 163 6 153 -79 150 l-71 -3 0 -210 0 -210 353
-1 352 -2 0 178 c0 99 -4 190 -10 205 -13 33 -31 52 -110 107 -336 238 -499
666 -410 1076 76 348 342 644 685 762 163 56 386 69 551 32 439 -98 771 -463
821 -900 43 -372 -114 -737 -412 -958 -98 -74 -103 -78 -119 -109 -13 -24 -16
-67 -16 -211 l0 -181 353 1 352 1 1 213 1 213 -76 -3 -76 -3 0 -135 0 -135
-200 0 -200 0 -3 86 -3 85 58 40 c87 59 231 208 296 305 140 212 209 454 201
708 -2 58 -6 117 -9 131 -2 13 -7 42 -10 63 -8 52 -56 198 -90 271 -86 189
-240 368 -416 486 -88 59 -226 130 -252 130 -7 0 -17 4 -23 9 -9 8 -70 26
-124 37 -14 2 -47 9 -75 15 -76 16 -280 17 -370 3z"/>
<path d="M1275 2270 c-142 -22 -243 -177 -310 -476 -14 -62 -27 -129 -30 -150
-4 -22 -8 -46 -11 -55 -4 -15 -117 -109 -131 -109 -9 0 -60 57 -94 107 -83
119 -68 194 38 196 26 1 67 -2 89 -7 l42 -7 16 72 c9 40 15 73 14 74 -12 10
-109 22 -163 20 -88 -4 -168 -43 -210 -103 -27 -39 -30 -52 -30 -115 1 -61 6
-82 32 -134 36 -70 70 -121 120 -174 l33 -35 -56 -70 c-211 -261 -158 -480
122 -500 69 -5 109 -2 214 21 43 9 152 46 239 81 47 19 92 34 101 34 16 0 145
-52 156 -63 11 -10 -35 -127 -72 -184 -33 -51 -59 -73 -88 -73 -28 0 -76 52
-103 111 -15 33 -32 58 -38 56 -5 -3 -36 -13 -67 -23 -36 -11 -58 -23 -58 -32
0 -28 61 -139 100 -180 104 -110 233 -112 334 -5 38 40 105 162 126 228 7 22
16 44 20 48 4 4 36 3 71 -3 229 -40 367 5 419 137 27 71 -9 196 -87 299 -70
92 -201 228 -301 313 -42 36 -52 51 -52 75 0 17 -4 45 -9 62 -5 17 -6 36 -2
43 17 27 209 43 263 22 57 -22 56 -63 -3 -170 l-32 -59 53 -50 54 -51 24 32
c93 124 122 270 71 353 -56 91 -175 124 -364 99 -109 -15 -106 -16 -125 40
-71 207 -191 324 -315 305z m69 -171 c29 -23 106 -173 109 -213 2 -24 -6 -30
-98 -69 -55 -24 -135 -62 -177 -85 -47 -25 -78 -37 -78 -30 0 43 56 226 90
295 58 117 99 145 154 102z m157 -406 c0 -10 2 -27 5 -38 9 -45 18 -197 17
-300 0 -122 -16 -311 -27 -322 -6 -6 -107 37 -216 93 -101 51 -267 157 -341
216 l-34 28 30 25 c48 39 213 149 289 190 70 39 255 125 269 125 4 0 7 -8 8
-17z m260 -380 c189 -193 241 -310 152 -344 -35 -13 -125 -13 -204 1 l-66 11
9 52 c12 77 21 192 22 279 1 43 3 78 6 78 3 0 40 -35 81 -77z m-859 -130 c58
-43 128 -91 156 -108 28 -16 52 -33 52 -36 0 -8 -98 -44 -180 -65 -36 -10
-102 -17 -147 -18 -89 -1 -133 18 -139 59 -7 41 115 242 147 244 4 1 54 -34
111 -76z"/>
<path d="M1233 1502 c-74 -40 -102 -126 -65 -199 25 -49 58 -71 115 -79 87
-12 167 58 167 147 0 106 -124 181 -217 131z"/>
</g>
</svg>
